<svg xmlns="http://www.w3.org/2000/svg" width="96" height="96"><path fill="#28387D" d="M96.229 47.682c0-4.285-1.844-8.138-4.767-10.841h2.797v-3.94h-1.402c-1.516-3.32-2.319-7.025-2.319-10.795 0-.77.044-1.536.11-2.298h.219v-1.82a25.628 25.628 0 0 1 2.036-6.775h1.356v-3.94H13.843v.07C6.336 8.042.439 14.371.439 22.057c0 4.286 1.843 8.138 4.766 10.841H2.408v3.94h.851c1.545 3.345 2.365 7.083 2.365 10.893 0 3.771-.804 7.475-2.32 10.796h-.896v3.939h2.801C2.284 65.168.438 69.024.438 73.312c0 7.687 5.897 14.015 13.404 14.714v.069h80.416v-3.94h-1.402c-1.516-3.319-2.319-7.024-2.319-10.794 0-3.81.819-7.548 2.365-10.893h1.356v-3.94h-2.801c2.926-2.704 4.772-6.557 4.772-10.846zM4.379 22.057c0-5.979 4.865-10.843 10.843-10.843h73.402a29.795 29.795 0 0 0-1.371 4.655h-6.699v3.939h6.14a30.309 30.309 0 0 0-.096 2.298c0 3.725.687 7.4 1.989 10.795h-5.762v-.003H15.156c-5.948-.037-10.777-4.884-10.777-10.841zm4.402 32.522h7.992v-3.94H9.414c.092-.963.15-1.934.15-2.908a30.67 30.67 0 0 0-.185-3.297h7.394v-3.939H8.692a29.523 29.523 0 0 0-1.156-3.656h6.307v.003h67.669c5.947.036 10.776 4.884 10.776 10.841 0 5.979-4.864 10.844-10.843 10.844H7.574c.491-1.281.896-2.6 1.207-3.948zM86.79 76.751h-6.896v3.939h7.603a29.574 29.574 0 0 0 1.091 3.464H15.222c-5.979 0-10.843-4.864-10.843-10.843s4.865-10.844 10.843-10.844h73.402a30.204 30.204 0 0 0-1.834 14.284z"/></svg>