<svg xmlns="http://www.w3.org/2000/svg" width="96" height="96"><path fill="#28387D" d="M-201.893-28.209l-20.669-20.668 53.196-53.193 20.667 20.668-53.194 53.193zm-15.012-20.669l15.012 15.011 47.538-47.536-15.011-15.011-47.539 47.536zM-230.549-20.222l5.167-25.836 2.496-2.494 20.668 20.667-2.495 2.497-25.836 5.166zm8.455-21.882l-3.356 16.783 16.784-3.356-13.428-13.427zM-94.116-20.385h-20.538v-19.367l34.536-34.538a30.016 30.016 0 0 1-1.459-9.29c0-16.606 13.51-30.116 30.115-30.116 16.606 0 30.116 13.51 30.116 30.116s-13.51 30.117-30.116 30.117a29.97 29.97 0 0 1-9.29-1.461l-14.689 14.692h-8.751v9.923h-9.924v9.924zm-16.538-4h12.538v-9.923h9.924v-9.923h11.095l15.314-15.319 1.206.451a25.916 25.916 0 0 0 9.115 1.637c14.4 0 26.116-11.716 26.116-26.117 0-14.4-11.716-26.116-26.116-26.116S-77.577-97.98-77.577-83.58c0 3.144.55 6.211 1.635 9.117l.449 1.204-35.161 35.163v13.711z"/><path fill="#28387D" d="M-43.191-79.926c-6.575 0-11.924-5.349-11.924-11.923 0-6.575 5.349-11.924 11.924-11.924 6.574 0 11.922 5.349 11.922 11.924-.001 6.575-5.348 11.923-11.922 11.923zm0-19.846c-4.369 0-7.924 3.555-7.924 7.924s3.555 7.923 7.924 7.923c4.368 0 7.922-3.554 7.922-7.923-.001-4.37-3.554-7.924-7.922-7.924zM84.284-111.03h1.914v-3.793H19.793c-5.221 0-9.451 4.21-9.451 9.482v73.962C10.342-25.097 15.438-20 21.698-20h3.813v-79.652h-5.714c-3.131 0-5.664-2.546-5.664-5.689a5.66 5.66 0 0 1 5.664-5.689h56.919s-1.897 2.795-1.897 5.589 1.897 5.789 1.897 5.789h-47.41V-20h56.893v-79.652h-1.914a5.668 5.668 0 0 1-5.671-5.689c-.001-3.143 2.568-5.689 5.67-5.689zM-396.875-341.5v-6.5h-4v6.5h-30.75v-6.5h-4v6.5H-459v89.5h86v-89.5h-23.875zm-38.75 4v4.75h4v-4.75h30.75v4.75h4v-4.75H-377v14.5h-78v-14.5h19.375zM-455-256v-63h78v63h-78z"/><path fill="#28387D" d="M-424.417-299.352l.816 3.217 5.425-2.928h.096v27.266h4.08V-303h-3.6zM-300-344c24.262 0 44 19.738 44 44s-19.738 44-44 44-44-19.738-44-44 19.738-44 44-44m0-4c-26.51 0-48 21.49-48 48s21.49 48 48 48 48-21.49 48-48-21.49-48-48-48zM-184-228c24.261 0 44 19.738 44 44s-19.738 44-44 44-44-19.738-44-44 19.739-44 44-44m0-4c-26.51 0-48 21.49-48 48s21.49 48 48 48c26.509 0 48-21.49 48-48s-21.49-48-48-48z"/><path fill="#28387D" d="M-311.601-269.683v-60.634L-275.539-300l-36.062 30.317zm4-52.046v43.457L-281.755-300l-25.846-21.729zM-204.749-252.113l-2.574-3.062L-154.004-300l-53.319-44.826 2.574-3.061L-147.787-300zM48.27-344c24.262 0 44 19.738 44 44s-19.738 44-44 44-44-19.738-44-44 19.738-44 44-44m0-4c-26.51 0-48 21.49-48 48s21.49 48 48 48 48-21.49 48-48-21.491-48-48-48zM-67.865 3.865c24.262 0 44 19.738 44 44s-19.738 44-44 44-44-19.738-44-44 19.738-44 44-44m0-4c-26.51 0-48 21.49-48 48s21.49 48 48 48 48-21.49 48-48-21.49-48-48-48zM-389.709 211.888l-56.961-47.887 56.961-47.889 2.574 3.063-53.319 44.826 53.319 44.824zM-299.999 194.679l-47.888-56.962 3.062-2.574 44.826 53.319 44.825-53.319 3.062 2.574zM-230.354 117l46.355 55.141L-137.643 117zM-21.646 211l-46.355-55.141L-114.357 211zM38.5 15.496c12.958 0 23.5 10.542 23.5 23.5s-10.542 23.5-23.5 23.5S15 51.954 15 38.996s10.542-23.5 23.5-23.5m0-4c-15.188 0-27.5 12.313-27.5 27.5s12.313 27.5 27.5 27.5S66 54.183 66 38.996s-12.312-27.5-27.5-27.5z"/><path fill="#28387D" d="M88.09 84.504L67.68 64.096c5.804-6.741 9.32-15.507 9.32-25.1C77 17.732 59.763.496 38.5.496S0 17.732 0 38.996s17.237 38.5 38.5 38.5a38.307 38.307 0 0 0 20.727-6.063l20.967 20.966c1.271 1.271 2.835 2.134 4.405 2.428.395.074.782.11 1.16.11 1.368 0 2.604-.475 3.498-1.369 2.214-2.214 1.701-6.194-1.167-9.064zM4 38.996c0-19.023 15.477-34.5 34.5-34.5S73 19.972 73 38.996s-15.477 34.5-34.5 34.5S4 58.019 4 38.996zm82.429 51.743c-.19.19-.6.249-1.094.156-.773-.145-1.616-.627-2.313-1.323l-20.501-20.5a39.223 39.223 0 0 0 2.396-2.083l20.345 20.344c1.374 1.375 1.612 2.961 1.167 3.406zM-464.5-224.101h97v7h-97zM-464.5-200.261h97v7h-97zM-464.5-152.58h58.711v7H-464.5zM-464.5-176.42h97v7h-97zM-348.125-232h24.389v24.389h-24.389zM-276.514-232h24.389v24.389h-24.389zM-312.319-232h24.389v24.389h-24.389zM-348.125-160.389h24.389V-136h-24.389zM-276.514-160.389h24.389V-136h-24.389zM-312.319-160.389h24.389V-136h-24.389zM-348.125-196.428h24.389v24.389h-24.389zM-276.514-196.428h24.389v24.389h-24.389zM-312.319-196.428h24.389v24.389h-24.389zM-189.234-171.518l-.162-2.093c-.482-4.268.967-9.099 4.993-13.931 3.624-4.268 5.637-7.408 5.637-11.032 0-4.107-2.577-6.845-7.65-6.925-2.899 0-6.12.966-8.133 2.497l-1.932-5.073c2.738-1.932 7.247-3.221 11.515-3.221 9.26 0 13.448 5.717 13.448 11.837 0 5.476-3.061 9.421-6.925 14.011-3.545 4.187-4.833 7.811-4.591 11.917l.161 2.013h-6.361zm-1.691 11.354c0-2.979 2.012-5.073 4.75-5.073 2.898 0 4.75 2.094 4.75 5.073 0 2.818-1.851 4.992-4.83 4.992-2.738.001-4.67-2.173-4.67-4.992zM-31.5-231.956l-55.272 28.165h-19.899v39.693h20.119l55.053 28.053v-95.911zm-71.172 32.165h14.349v31.693h-14.349v-31.693zm67.172 57.219l-48.823-24.879v-33.099l48.823-24.879v82.857zM48-226c10.131 0 18.372 8.241 18.372 18.372S58.131-189.256 48-189.256c-10.13 0-18.371-8.242-18.371-18.372S37.87-226 48-226m0-4c-12.355 0-22.371 10.016-22.371 22.372S35.645-185.256 48-185.256s22.372-10.016 22.372-22.372S60.355-230 48-230zM91.397-138.54c-5.384-20.668-23.271-35.103-43.5-35.103-19.893 0-37.699 14.132-43.303 34.368l-3.855-1.067c6.082-21.962 25.474-37.3 47.158-37.3 22.049 0 41.528 15.665 47.371 38.094l-3.871 1.008zM-184.096 9.165c8.208 0 14.884 6.677 14.884 14.884s-6.676 14.885-14.884 14.885c-8.207 0-14.883-6.678-14.883-14.885s6.677-14.884 14.883-14.884m0-6.777c-11.963 0-21.661 9.698-21.661 21.661 0 11.964 9.697 21.663 21.661 21.663 11.963 0 21.662-9.699 21.662-21.663s-9.699-21.661-21.662-21.661zM-143.481 91.309c-5.046-19.372-21.789-32.901-40.713-32.901-18.611 0-35.276 13.246-40.529 32.212l-6.532-1.809c6.063-21.891 25.415-37.181 47.061-37.181 22.009 0 41.449 15.614 47.272 37.97l-6.559 1.709zM-381.972-20.493h-81.513v-94.985h94.986v92.985h-4v-88.985h-86.986v86.985h77.513z"/><path fill="#28387D" d="M-429.729-88.571h47.88v4h-47.88zM-429.729-69.04h47.88v4h-47.88zM-429.729-49.51h47.88v4h-47.88z"/><g><path fill="#28387D" d="M-440.001-89.815v6.49h-6.49v-6.49h6.49m4-4h-14.49v14.49h14.49v-14.49zM-440.001-70.285v6.49h-6.49v-6.49h6.49m4-4h-14.49v14.49h14.49v-14.49zM-440.001-50.755v6.49h-6.49v-6.49h6.49m4-4h-14.49v14.49h14.49v-14.49z"/></g><g fill="#28387D"><path d="M-281-108.54v-6.5h-4v6.5h-30.75v-6.5h-4v6.5h-23.375v89.5h86v-89.5H-281zm-38.75 4v4.75h4v-4.75H-285v4.75h4v-4.75h19.875v14.5h-78v-14.5h19.375zm-19.375 81.5v-63h78v63h-78z"/><path d="M-328.341-48.822l1.679-2.107c4.509-5.794 7.373-10.052 7.373-15.319 0-4.082-1.942-8.296-6.55-8.296-2.436 0-4.575 1.273-6.023 2.897l.921 2.721c.988-1.097 2.6-2.414 4.542-2.414 3.192 0 4.213 2.678 4.213 5.575 0 4.302-2.501 7.989-7.965 14.923l-2.271 2.941v2.371h13.658v-3.205h-9.578v-.087zM-308.361-74.543c-4.344 0-7.471 5.224-7.471 14.836.066 9.437 2.929 14.66 7.109 14.66 4.706 0 7.438-5.355 7.438-15.055 0-9.086-2.6-14.441-7.076-14.441zm-.197 26.511c-2.633 0-4.345-4.213-4.345-11.631 0-7.769 1.844-11.895 4.345-11.895 3.028 0 4.344 4.609 4.344 11.632 0 7.285-1.415 11.894-4.344 11.894zM-296.708-70.725l.56 2.941 3.719-2.677h.066v24.931h2.797v-28.531h-2.469zM-271.89-60.717v-.132c2.633-1.624 3.555-4.257 3.555-6.672 0-3.599-2.106-7.023-6.253-7.023-3.785 0-6.649 3.073-6.649 7.594 0 2.458 1.021 4.916 3.423 6.408l.033.132c-2.633 1.493-4.246 4.082-4.246 7.681 0 4.17 2.699 7.681 7.175 7.681 4.082 0 7.274-3.292 7.274-8.296 0-3.423-1.646-5.969-4.312-7.373zm-6.582-6.496c0-2.458 1.316-4.565 3.719-4.565 2.6 0 3.62 2.37 3.62 4.652 0 2.59-1.416 4.345-3.258 5.18-2.468-.878-4.114-2.414-4.081-5.267zm3.686 19.357c-2.731 0-4.377-2.546-4.279-5.399 0-2.721 1.349-4.959 3.851-5.925 2.896 1.098 4.707 2.809 4.707 6.232 0 2.941-1.679 5.092-4.279 5.092z"/></g><g><path fill="#28387D" d="M-157.166-109.01l15.01 15.01-6.009 6.009-15.01-15.01 6.009-6.009m0-5.657l-11.666 11.666 20.667 20.667L-136.5-94l-20.666-20.667z"/></g><g fill="#28387D"><path d="M-450.297 29.406h16.629v4h-16.629zM-450.297 44.499h16.629v4h-16.629zM-450.297 59.591h16.629v4h-16.629z"/><path d="M-369.197 8.741a21.93 21.93 0 0 0-.822-1.352l-.201-.315c-.241-.382-.513-.815-.865-1.224a5.26 5.26 0 0 0-.463-.481c-.602-.553-1.259-.971-1.838-1.339l-.298-.191c-.694-.448-1.558-1.006-2.607-1.288-.32-.085-.806-.2-1.34-.2-1.196 0-1.935.547-2.349 1.012a2.57 2.57 0 0 0-.217.29l-9.962 10V4.101h-72.267v91.083h72.267v-60.46a55645.051 55645.051 0 0 1 20.737-20.649c.181-.152.519-.436.779-.911.939-1.719-.055-3.519-.554-4.423zm-24.964 82.443h-64.267V8.101h64.267v9.569l-25.508 25.609-.22.221-11.03 21.467 21.468-11.029.221-.22 15.069-15.01v52.476zm-24.358-41.599a10.793 10.793 0 0 0 3.115 2.914l-6.266 3.219 3.151-6.133zm7.29.477c-3.614-1.179-4.626-3.456-4.91-4.66L-377.31 6.42c.44.125.979.472 1.455.779l.32.205c.483.307.939.598 1.284.914.041.037.079.077.124.13.167.194.339.467.521.757l.236.37c.234.359.463.723.691 1.138.084.151.227.41.323.627l-38.873 38.722z"/></g><path fill="#28387D" d="M-251.374 46.963c0-4.315-1.856-8.195-4.799-10.917h2.816V32.08h-1.412c-1.527-3.343-2.336-7.074-2.336-10.87 0-.775.045-1.546.111-2.313h.221v-1.833a25.737 25.737 0 0 1 2.05-6.822h1.366V6.274h-80.976v.07c-7.559.704-13.497 7.076-13.497 14.816 0 4.315 1.856 8.195 4.799 10.916h-2.816v3.967h.857c1.556 3.369 2.382 7.133 2.382 10.969 0 3.796-.81 7.527-2.336 10.87h-.902v3.967h2.821c-2.945 2.722-4.804 6.604-4.804 10.921 0 7.74 5.938 14.112 13.497 14.816v.07h80.976V83.69h-1.412c-1.527-3.343-2.336-7.074-2.336-10.87 0-3.835.825-7.6 2.382-10.969h1.366v-3.967h-2.821c2.944-2.722 4.803-6.603 4.803-10.921zm-92.489-25.803c0-6.021 4.898-10.919 10.919-10.919h73.913a29.756 29.756 0 0 0-1.381 4.688h-6.747v3.967h6.183a30.706 30.706 0 0 0-.097 2.313c0 3.751.692 7.452 2.004 10.87h-5.803v-.003h-68.14c-5.988-.036-10.851-4.918-10.851-10.916zm4.433 32.748h8.047V49.94h-7.41c.092-.97.151-1.947.151-2.928 0-1.113-.067-2.222-.187-3.32h7.445v-3.967h-8.137a29.593 29.593 0 0 0-1.165-3.681h6.351v.003h68.139c5.99.037 10.853 4.918 10.853 10.917 0 6.021-4.898 10.919-10.919 10.919h-74.385a29.45 29.45 0 0 0 1.217-3.975zm78.552 22.326h-6.944v3.967h7.655a29.55 29.55 0 0 0 1.099 3.488h-73.875c-6.021 0-10.919-4.898-10.919-10.919 0-6.021 4.898-10.92 10.919-10.92h73.913a30.405 30.405 0 0 0-1.848 14.384z"/><path fill="none" stroke="#E76328" stroke-width="4" stroke-miterlimit="10" d="M141.574-454.882h38.998v38.998h-38.998z"/><path fill="none" stroke="#28387D" stroke-width="4" stroke-miterlimit="10" d="M198.571-454.882h38.998v38.998h-38.998z"/><path fill="#28387D" d="M72.03-324.235l-3.002-2.644-20.778 23.602-20.778-23.602-3.002 2.644 21.115 23.985-21.115 23.985 3.002 2.644 20.778-23.602 20.778 23.602 3.002-2.644-21.115-23.985z"/><g><path fill="#28387D" d="M-71.19 64.305l-20.026-20.026 2.828-2.828 16.973 16.973 28.204-32.861 3.035 2.605z"/></g><path fill="#28387D" d="M-50.467-282.095C-43.39-289.076-39-298.774-39-309.5c0-21.263-17.237-38.5-38.5-38.5s-38.5 17.237-38.5 38.5S-98.763-271-77.5-271a38.31 38.31 0 0 0 24.029-8.435l.005.004.354.35.301.307 25.984 26.529 2.857-2.799-26.497-27.051zM-112-309.5c0-19.023 15.477-34.5 34.5-34.5S-43-328.523-43-309.5-58.477-275-77.5-275s-34.5-15.477-34.5-34.5z"/></svg>