<svg xmlns="http://www.w3.org/2000/svg" width="96" height="96"><path fill="#28387D" d="M48 4c24.261 0 44 19.738 44 44S72.262 92 48 92C23.739 92 4 72.262 4 48S23.739 4 48 4m0-4C21.491 0 0 21.49 0 48s21.49 48 48 48c26.509 0 48-21.49 48-48S74.51 0 48 0z"/><path fill="#28387D" d="M42.766 60.482l-.162-2.094c-.482-4.268.967-9.099 4.993-13.93 3.624-4.269 5.637-7.409 5.637-11.032 0-4.107-2.577-6.845-7.65-6.925-2.899 0-6.12.966-8.133 2.497l-1.932-5.073c2.738-1.932 7.247-3.221 11.515-3.221 9.26 0 13.448 5.717 13.448 11.837 0 5.476-3.061 9.421-6.925 14.012-3.545 4.187-4.833 7.811-4.591 11.916l.161 2.014h-6.361zm-1.691 11.354c0-2.979 2.012-5.072 4.75-5.072 2.898 0 4.75 2.094 4.75 5.072 0 2.818-1.851 4.992-4.83 4.992-2.738 0-4.67-2.174-4.67-4.992z"/></svg>