<svg xmlns="http://www.w3.org/2000/svg" width="96" height="96"><g fill="#28387D"><path d="M13.009 28.639h16.629v4H13.009zM13.009 43.731h16.629v4H13.009zM13.009 58.824h16.629v4H13.009z"/><path d="M94.108 7.974a21.93 21.93 0 0 0-.822-1.352l-.201-.315c-.24-.382-.513-.815-.865-1.224a5.26 5.26 0 0 0-.463-.481c-.602-.553-1.258-.971-1.838-1.339l-.299-.191c-.693-.448-1.558-1.006-2.607-1.288a5.24 5.24 0 0 0-1.34-.2c-1.195 0-1.935.547-2.35 1.012a2.697 2.697 0 0 0-.217.29l-9.962 10V3.333H.878v91.083h72.267V33.957a55645.051 55645.051 0 0 1 20.737-20.649 3.1 3.1 0 0 0 .779-.911c.942-1.719-.054-3.519-.553-4.423zM69.145 90.416H4.878V7.333h64.267v9.569L43.637 42.511l-.22.221-11.03 21.467L53.854 53.17l.221-.219 15.069-15.01v52.475zM44.787 48.818a10.798 10.798 0 0 0 3.114 2.913l-6.266 3.221 3.152-6.134zm7.29.477c-3.613-1.179-4.626-3.456-4.91-4.66L85.996 5.653c.44.125.979.472 1.455.779l.32.205c.483.307.938.598 1.284.914.041.037.078.077.123.13.168.194.34.467.521.757l.236.37c.234.359.463.723.691 1.138.084.151.227.41.323.627L52.077 49.295z"/></g></svg>