<svg xmlns="http://www.w3.org/2000/svg" width="96" height="96"><path fill="#28387D" d="M82.02 95.453H.507V.467h94.986v92.986h-4V4.467H4.507v86.986H82.02z"/><path fill="#28387D" d="M34.263 27.374h47.879v4H34.263zM34.263 46.905h47.879v4H34.263zM34.263 66.436h47.879v4H34.263z"/><g><path fill="#28387D" d="M23.991 26.13v6.49h-6.49v-6.49h6.49m4-4h-14.49v14.49h14.49V22.13zM23.991 45.66v6.491h-6.49V45.66h6.49m4-4h-14.49v14.49h14.49V41.66zM23.991 65.189v6.49h-6.49v-6.49h6.49m4-4h-14.49v14.49h14.49v-14.49z"/></g></svg>