<svg xmlns="http://www.w3.org/2000/svg" width="96" height="96"><path fill="#28387D" d="M47.261 8.54c10.131 0 18.372 8.241 18.372 18.372s-8.241 18.373-18.372 18.373c-10.13 0-18.371-8.242-18.371-18.373S37.131 8.54 47.261 8.54m0-4c-12.355 0-22.371 10.016-22.371 22.372s10.016 22.373 22.371 22.373 22.372-10.017 22.372-22.373c0-12.356-10.017-22.372-22.372-22.372zM90.658 96c-5.384-20.668-23.271-35.103-43.5-35.103-19.893 0-37.699 14.133-43.303 34.367L0 94.198c6.082-21.963 25.474-37.301 47.158-37.301 22.049 0 41.528 15.665 47.371 38.094L90.658 96z"/></svg>