<svg xmlns="http://www.w3.org/2000/svg" width="96" height="96"><path fill="#28387D" d="M47.993 13.856c8.208 0 14.884 6.677 14.884 14.884s-6.676 14.885-14.884 14.885c-8.207 0-14.883-6.678-14.883-14.885s6.677-14.884 14.883-14.884m0-6.777c-11.963 0-21.661 9.698-21.661 21.661 0 11.964 9.697 21.662 21.661 21.662 11.963 0 21.662-9.698 21.662-21.662 0-11.963-9.699-21.661-21.662-21.661zM88.607 96c-5.046-19.371-21.789-32.9-40.713-32.9-18.611 0-35.276 13.246-40.529 32.212l-6.532-1.81c6.063-21.891 25.415-37.18 47.061-37.18 22.009 0 41.449 15.613 47.272 37.97L88.607 96z"/></svg>