<svg xmlns="http://www.w3.org/2000/svg" width="96" height="96"><path fill="#28387D" d="M21.538 95H1V75.633l34.536-34.538a30.016 30.016 0 0 1-1.459-9.29c0-16.606 13.51-30.116 30.115-30.116 16.606 0 30.116 13.51 30.116 30.116 0 16.607-13.51 30.117-30.116 30.117a29.94 29.94 0 0 1-9.29-1.461L40.213 75.153h-8.751v9.923h-9.924V95zM5 91h12.538v-9.924h9.924v-9.923h11.095l15.314-15.319 1.206.451a25.916 25.916 0 0 0 9.115 1.637c14.4 0 26.116-11.716 26.116-26.117 0-14.4-11.716-26.116-26.116-26.116S38.077 17.405 38.077 31.805c0 3.144.55 6.211 1.635 9.117l.449 1.204L5 77.289V91z"/><path fill="#28387D" d="M72.463 35.459c-6.575 0-11.924-5.349-11.924-11.923 0-6.575 5.349-11.924 11.924-11.924 6.574 0 11.922 5.349 11.922 11.924 0 6.574-5.348 11.923-11.922 11.923zm0-19.847c-4.369 0-7.924 3.555-7.924 7.924s3.555 7.923 7.924 7.923c4.368 0 7.922-3.554 7.922-7.923s-3.554-7.924-7.922-7.924z"/></svg>