<svg xmlns="http://www.w3.org/2000/svg" width="96" height="96"><path fill="#28387D" d="M42.185 15.779c12.958 0 23.5 10.542 23.5 23.5s-10.542 23.5-23.5 23.5-23.5-10.543-23.5-23.5c0-12.958 10.542-23.5 23.5-23.5m0-4c-15.188 0-27.5 12.313-27.5 27.5 0 15.188 12.313 27.5 27.5 27.5s27.5-12.313 27.5-27.5c0-15.188-12.313-27.5-27.5-27.5z"/><path fill="#28387D" d="M91.774 84.787l-20.41-20.408c5.804-6.741 9.32-15.507 9.32-25.1 0-21.264-17.237-38.5-38.5-38.5s-38.5 17.236-38.5 38.5 17.237 38.5 38.5 38.5a38.307 38.307 0 0 0 20.727-6.063l20.967 20.966c1.271 1.271 2.835 2.134 4.405 2.428.395.073.782.11 1.16.11 1.368 0 2.604-.476 3.498-1.369 2.214-2.213 1.702-6.195-1.167-9.064zM7.685 39.279c0-19.023 15.477-34.5 34.5-34.5s34.5 15.477 34.5 34.5c0 19.024-15.477 34.5-34.5 34.5s-34.5-15.476-34.5-34.5zm82.428 51.743c-.19.19-.6.249-1.094.155-.773-.145-1.616-.627-2.313-1.322l-20.501-20.5a38.897 38.897 0 0 0 2.396-2.084l20.345 20.344c1.374 1.375 1.613 2.962 1.167 3.407z"/></svg>