<svg xmlns="http://www.w3.org/2000/svg" width="96" height="96"><g fill="#28387D"><path d="M66.841 6.5V0h-4v6.5h-30.75V0h-4v6.5H4.716V96h86V6.5H66.841zm-38.75 4v4.75h4V10.5h30.75v4.75h4V10.5h19.875V25h-78V10.5h19.375zM8.716 92V29h78v63h-78z"/><path d="M19.5 66.218l1.679-2.106c4.509-5.794 7.373-10.052 7.373-15.319 0-4.082-1.942-8.296-6.55-8.296-2.436 0-4.575 1.273-6.023 2.897l.921 2.721c.988-1.097 2.6-2.414 4.542-2.414 3.192 0 4.213 2.678 4.213 5.575 0 4.302-2.501 7.989-7.965 14.923l-2.271 2.941v2.371h13.658v-3.205H19.5v-.088zM39.48 40.497c-4.344 0-7.471 5.224-7.471 14.836.066 9.437 2.929 14.66 7.109 14.66 4.706 0 7.438-5.355 7.438-15.056 0-9.085-2.6-14.44-7.076-14.44zm-.197 26.511c-2.633 0-4.345-4.214-4.345-11.632 0-7.769 1.844-11.895 4.345-11.895 3.028 0 4.344 4.609 4.344 11.632-.001 7.286-1.416 11.895-4.344 11.895zM51.133 44.315l.559 2.941 3.719-2.677h.067v24.932h2.796V40.979h-2.468zM75.95 54.323v-.132c2.634-1.624 3.555-4.258 3.555-6.672 0-3.599-2.105-7.023-6.252-7.023-3.785 0-6.649 3.073-6.649 7.594 0 2.458 1.021 4.916 3.423 6.409l.033.131c-2.633 1.493-4.246 4.082-4.246 7.682 0 4.17 2.699 7.682 7.176 7.682 4.081 0 7.273-3.293 7.273-8.297 0-3.424-1.647-5.969-4.313-7.374zm-6.582-6.496c0-2.458 1.316-4.565 3.72-4.565 2.601 0 3.62 2.37 3.62 4.652 0 2.59-1.416 4.345-3.258 5.18-2.469-.878-4.114-2.413-4.082-5.267zm3.687 19.357c-2.731 0-4.377-2.546-4.278-5.399 0-2.721 1.349-4.959 3.851-5.925 2.896 1.098 4.707 2.81 4.707 6.232-.001 2.94-1.68 5.092-4.28 5.092z"/></g></svg>